<?xml version="1.0" encoding="UTF-8"?>
<svg version="1.1" xmlns="http://www.w3.org/2000/svg" width="512" height="512">
<path d="M0 0 C3.13731322 4.72595721 4.41535554 10.33150619 5.94140625 15.74609375 C6.2209314 16.71968967 6.50045654 17.6932856 6.78845215 18.69638443 C7.71873426 21.94184991 8.6405848 25.18964879 9.5625 28.4375 C10.22334791 30.74907302 10.8847371 33.06049136 11.54663086 35.37176514 C13.14702414 40.9648942 14.7421124 46.55951604 16.33494473 52.15480256 C18.19608201 58.69129344 20.06410812 65.22580901 21.93286896 71.76012373 C22.88088002 75.07495582 23.82865429 78.3898556 24.77636719 81.70477295 C24.96460934 82.36320482 25.15285149 83.02163668 25.34679794 83.70002103 C26.68697375 88.38820294 28.02593223 93.07673149 29.36425781 97.76544189 C35.67145228 119.86188808 42.00742944 141.94999046 48.35687256 164.03433228 C50.00578079 169.76965428 51.65365854 175.50527201 53.30126953 181.2409668 C53.57220743 182.18415488 53.84314533 183.12734297 54.12229347 184.09911251 C54.66727325 185.99629937 55.21225171 187.8934866 55.75722885 189.79067421 C57.10135531 194.46970298 58.4456959 199.14867021 59.79003906 203.82763672 C62.21390735 212.26391364 64.6376722 220.70022026 67.0613203 229.13656044 C68.40888645 233.82717543 69.75655627 238.51776058 71.10444641 243.20828247 C73.4678117 251.43272773 75.83081541 259.65727471 78.19072819 267.88271141 C79.45611216 272.29303547 80.72203598 276.70320441 81.98828125 281.11328125 C82.23615072 281.97657925 82.4840202 282.83987724 82.73940086 283.72933578 C86.28866914 296.08692011 89.86684106 308.43586716 93.46257782 320.7800045 C94.95619602 325.9110866 96.44512842 331.0435307 97.93395996 336.17600346 C99.32824257 340.98016481 100.73065563 345.78185083 102.13947201 350.58176899 C102.99568697 353.50594889 103.84421119 356.43231862 104.69060707 359.35935402 C105.08089584 360.70302842 105.4744175 362.04576884 105.87148094 363.38745689 C106.41261773 365.21736249 106.94110073 367.05099572 107.46899414 368.88476562 C107.91548058 370.41309021 107.91548058 370.41309021 108.37098694 371.97229004 C110.06097697 380.10693773 110.06097697 380.10693773 108.0032196 383.77851868 C104.86546567 385.6917926 101.46181451 386.5748332 97.94848633 387.54370117 C97.12874832 387.77822495 96.30901031 388.01274872 95.46443176 388.25437927 C92.75620924 389.02666514 90.04424825 389.78484227 87.33203125 390.54296875 C85.45277292 391.07590284 83.57376274 391.6097127 81.69499207 392.1443634 C76.75070729 393.54883658 71.8031382 394.9413776 66.85479736 396.33148193 C61.80546238 397.7522247 56.75931557 399.18419672 51.71289062 400.61523438 C41.81168618 403.42117171 31.90697667 406.21451704 22 409 C22.86526149 409.00219984 22.86526149 409.00219984 23.74800301 409.00444412 C37.79522509 409.04152417 51.84221223 409.10055457 65.88923836 409.18390274 C72.68234774 409.22368248 79.47534145 409.25608027 86.26855469 409.27099609 C92.82391231 409.28541052 99.37896922 409.32053402 105.93416977 409.36830902 C108.43557495 409.3831506 110.93703131 409.3910426 113.43848038 409.39188385 C116.94130968 409.39424677 120.44314293 409.42127439 123.94580078 409.45410156 C124.98086258 409.4490712 126.01592438 409.44404083 127.08235168 409.43885803 C133.0422435 409.52531763 136.44116697 410.06405362 141 414 C144.55062979 417.90569277 144.62728038 422.19307903 144.4765625 427.26953125 C143.83700942 430.93385585 142.45155146 432.93852426 139.99609375 435.66015625 C134.74194635 439.18691273 128.70180554 439.2895051 122.56817627 439.25168228 C121.74164692 439.25458916 120.91511758 439.25749604 120.06354189 439.26049101 C117.29391446 439.26778992 114.52450863 439.26084812 111.75488281 439.25396729 C109.74917614 439.25627175 107.74347032 439.25944819 105.73776627 439.26342177 C100.22590821 439.27178026 94.7141193 439.26763968 89.20226097 439.26144934 C83.25808618 439.25693018 77.3139234 439.26390595 71.36975098 439.26940918 C60.39814123 439.27779597 49.42655206 439.2770587 38.45494151 439.27158624 C28.31928319 439.26655555 18.18363295 439.26524154 8.04797363 439.26763153 C7.03957241 439.26786069 7.03957241 439.26786069 6.01079944 439.26809447 C3.28186093 439.26871715 0.55292242 439.26935395 -2.17601608 439.270014 C-27.77664198 439.27613229 -53.37725382 439.27058461 -78.97787756 439.2598202 C-101.72354048 439.25032896 -124.46918102 439.25117822 -147.21484375 439.26074219 C-172.76858489 439.27145096 -198.3223136 439.27569838 -223.87605667 439.26951766 C-226.60002899 439.26887622 -229.32400131 439.26825054 -232.04797363 439.26763153 C-232.7186873 439.26747338 -233.38940097 439.26731522 -234.0804393 439.26715227 C-244.20983892 439.26487713 -254.33922956 439.26753826 -264.46862793 439.27259064 C-275.98596176 439.27830665 -287.50327043 439.27669213 -299.02060127 439.26602915 C-304.89885586 439.26076663 -310.77706495 439.25872561 -316.65531921 439.26532745 C-322.03400068 439.27127695 -327.41259439 439.26802827 -332.79126787 439.25737235 C-334.73935245 439.25513409 -336.68744442 439.25628413 -338.63552427 439.26112393 C-341.27984757 439.26719066 -343.92386882 439.26098224 -346.56817627 439.25168228 C-347.70715905 439.25870578 -347.70715905 439.25870578 -348.86915159 439.26587117 C-354.2695122 439.22781793 -359.41795926 438.73315063 -363.99609375 435.66015625 C-367.25674056 432.04605179 -368.43103486 429.34682469 -368.625 424.4375 C-368.34003725 419.6063874 -367.35847612 416.63078499 -364 413 C-359.71756676 409.69418426 -355.85163166 409.60101536 -350.63671875 409.70703125 C-349.84473587 409.71127609 -349.05275299 409.71552094 -348.23677063 409.71989441 C-345.71999373 409.73661837 -343.20403276 409.77425775 -340.6875 409.8125 C-338.97592307 409.82755501 -337.26433351 409.84124199 -335.55273438 409.85351562 C-331.36817767 409.88650115 -327.18422693 409.93823902 -323 410 C-323.00151888 409.1635949 -323.00303776 408.32718979 -323.00460267 407.46543908 C-323.09404952 357.93033882 -323.16271309 308.39524709 -323.20426132 258.86008228 C-323.20926435 252.91681253 -323.21444162 246.97354294 -323.21972656 241.03027344 C-323.2207758 239.84703923 -323.22182505 238.66380502 -323.22290608 237.44471523 C-323.24032731 218.26767463 -323.27187445 199.09068183 -323.30861118 179.91366962 C-323.34597283 160.24691747 -323.36822573 140.58019041 -323.37635398 120.91340423 C-323.38185167 108.77083436 -323.39923654 96.62839958 -323.43166587 84.48587129 C-323.45275482 76.16748846 -323.45921283 67.84917582 -323.45400551 59.53076819 C-323.45143495 54.7262477 -323.45546816 49.92196382 -323.4768219 45.11748505 C-323.49621147 40.72301181 -323.49731978 36.32893547 -323.48359558 31.9344444 C-323.48189806 30.34083611 -323.48703658 28.74720359 -323.49953273 27.1536434 C-323.51548824 24.99416095 -323.50699605 22.83612827 -323.49219131 20.67667007 C-323.4937102 19.47523495 -323.49522908 18.27379982 -323.49679399 17.03595757 C-322.90056074 13.39231678 -321.89562799 12.21741368 -319 10 C-316.7854538 9.49942875 -316.7854538 9.49942875 -314.33190918 9.49879456 C-313.39822006 9.48896042 -312.46453094 9.47912628 -311.50254822 9.46899414 C-309.97664818 9.48349609 -309.97664818 9.48349609 -308.41992188 9.49829102 C-306.80471397 9.49018654 -306.80471397 9.49018654 -305.15687561 9.48191833 C-301.59388835 9.46940078 -298.03170433 9.48594305 -294.46875 9.50390625 C-291.99540159 9.50375133 -289.52205293 9.50226358 -287.04870605 9.49949646 C-281.86357907 9.4981111 -276.67872824 9.51069387 -271.49365234 9.53344727 C-264.84192941 9.56183213 -258.19087288 9.55909636 -251.53908539 9.54635715 C-246.43133615 9.53940745 -241.3236933 9.54718124 -236.21595764 9.55961418 C-233.76311145 9.56413554 -231.31025386 9.56445953 -228.85740662 9.56054878 C-225.43139167 9.55764359 -222.00601278 9.57411133 -218.58007812 9.59594727 C-217.56281143 9.59144562 -216.54554474 9.58694397 -215.49745178 9.58230591 C-214.56376266 9.59221054 -213.63007355 9.60211517 -212.66809082 9.61231995 C-211.8584211 9.61474984 -211.04875137 9.61717974 -210.2145462 9.61968327 C-208 10 -208 10 -204 13 C-204 25.21 -204 37.42 -204 50 C-172.98 50 -141.96 50 -110 50 C-111.38478132 43.05810248 -111.38478132 43.05810248 -112.8125 36.125 C-113 33 -113 33 -111.89990234 30.93789673 C-109.38367648 28.3713512 -107.24467481 27.8346525 -103.7890625 26.86865234 C-102.84861084 26.59926346 -102.84861084 26.59926346 -101.88916016 26.32443237 C-99.80474719 25.73108065 -97.7151774 25.15862049 -95.625 24.5859375 C-94.14335404 24.16849351 -92.66207783 23.74973519 -91.18115234 23.32974243 C-87.25253903 22.21930493 -83.3192833 21.12629096 -79.38476562 20.0369873 C-75.52458891 18.9654405 -71.66863807 17.87894252 -67.8125 16.79296875 C-63.2153732 15.49888945 -58.61757597 14.20748228 -54.01611328 12.92889404 C-46.0121963 10.70298175 -38.02427367 8.43301084 -30.0546875 6.08691406 C-27.64520407 5.38189734 -25.23554046 4.67749896 -22.8258667 3.97313309 C-21.2885635 3.52099028 -19.75243908 3.06481796 -18.21759033 2.60441208 C-16.09576658 1.96802354 -13.97034968 1.34530519 -11.84375 0.72509766 C-10.63912109 0.36694977 -9.43449219 0.00880188 -8.19335938 -0.36019897 C-4.88471422 -1.02309792 -3.098164 -1.34745532 0 0 Z M-106 61 C-106 176.17 -106 291.34 -106 410 C-72.67 410 -39.34 410 -5 410 C-8.75140573 396.86994335 -8.75140573 396.86994335 -12.50317383 383.73999023 C-15.98239757 371.56450041 -19.46023286 359.38861639 -22.93574524 347.21206665 C-40.42345576 285.94394718 -58.00657868 224.70343065 -75.61614609 163.47023773 C-77.64574005 156.41279343 -79.67527632 149.35533253 -81.70479584 142.29786682 C-82.43128561 139.7716096 -83.15781029 137.24536241 -83.88433838 134.71911621 C-90.94901694 110.15352952 -97.99770687 85.58345669 -105 61 C-105.33 61 -105.66 61 -106 61 Z " fill="#F9D11F" transform="translate(368,37)"/>
<path d="M0 0 C6.93 0 13.86 0 21 0 C21.84498487 27.8840815 22.1403349 55.73780313 22.10139394 83.63385963 C22.0949974 89.02018723 22.09454408 94.40651587 22.09336853 99.79284668 C22.09030197 109.92048657 22.08215401 120.04811523 22.07201904 130.17575026 C22.05858101 143.91220806 22.05332009 157.64866909 22.04751682 171.38513184 C22.03820902 192.92342958 22.01825967 214.46170367 22 236 C54.34 236 86.68 236 120 236 C120 255.8 120 275.6 120 296 C153 295.67 186 295.34 220 295 C214.74024587 277.07786315 214.74024587 277.07786315 209.46875 259.15917969 C208.81207367 256.91353608 208.1557963 254.66777576 207.5 252.421875 C207.15453125 251.25479004 206.8090625 250.08770508 206.453125 248.88525391 C206.12828125 247.76908691 205.8034375 246.65291992 205.46875 245.50292969 C205.04239258 244.05064972 205.04239258 244.05064972 204.60742188 242.56903076 C204 240 204 240 204 236 C216.65248397 231.8151842 229.35445993 228.02733291 242.24047852 224.62890625 C250.44131577 222.45350837 258.55584149 220.0625229 266.66113281 217.55688477 C273.83284092 215.34231205 281.03311919 213.25171454 288.25634766 211.2121582 C295.45870881 209.17252107 302.62652854 207.02629593 309.78198242 204.82788086 C315.78664785 203 315.78664785 203 318 203 C322.03954344 216.01482041 325.95440963 229.06734808 329.75421143 242.15414429 C330.20776421 243.71127464 330.66456545 245.26746268 331.12469482 246.82266235 C331.77845631 249.0354824 332.41989595 251.25154195 333.05859375 253.46875 C333.35341393 254.45357613 333.35341393 254.45357613 333.65419006 255.45829773 C334.86842383 259.73714903 335.42609404 263.56188529 335 268 C332.5032628 271.78919895 328.07583526 272.40550515 323.94848633 273.54370117 C323.12874832 273.77822495 322.30901031 274.01274872 321.46443176 274.25437927 C318.75620924 275.02666514 316.04424825 275.78484227 313.33203125 276.54296875 C311.45277292 277.07590284 309.57376274 277.6097127 307.69499207 278.1443634 C302.75070729 279.54883658 297.8031382 280.9413776 292.85479736 282.33148193 C287.80546238 283.7522247 282.75931557 285.18419672 277.71289062 286.61523438 C267.81168618 289.42117171 257.90697667 292.21451704 248 295 C248.86526149 295.00219984 248.86526149 295.00219984 249.74800301 295.00444412 C263.79522509 295.04152417 277.84221223 295.10055457 291.88923836 295.18390274 C298.68234774 295.22368248 305.47534145 295.25608027 312.26855469 295.27099609 C318.82391231 295.28541052 325.37896922 295.32053402 331.93416977 295.36830902 C334.43557495 295.3831506 336.93703131 295.3910426 339.43848038 295.39188385 C342.94130968 295.39424677 346.44314293 295.42127439 349.94580078 295.45410156 C350.98086258 295.4490712 352.01592438 295.44404083 353.08235168 295.43885803 C359.0422435 295.52531763 362.44116697 296.06405362 367 300 C370.55062979 303.90569277 370.62728038 308.19307903 370.4765625 313.26953125 C369.83700942 316.93385585 368.45155146 318.93852426 365.99609375 321.66015625 C360.74194635 325.18691273 354.70180554 325.2895051 348.56817627 325.25168228 C347.74164692 325.25458916 346.91511758 325.25749604 346.06354189 325.26049101 C343.29391446 325.26778992 340.52450863 325.26084812 337.75488281 325.25396729 C335.74917614 325.25627175 333.74347032 325.25944819 331.73776627 325.26342177 C326.22590821 325.27178026 320.7141193 325.26763968 315.20226097 325.26144934 C309.25808618 325.25693018 303.3139234 325.26390595 297.36975098 325.26940918 C286.39814123 325.27779597 275.42655206 325.2770587 264.45494151 325.27158624 C254.31928319 325.26655555 244.18363295 325.26524154 234.04797363 325.26763153 C233.03957241 325.26786069 233.03957241 325.26786069 232.01079944 325.26809447 C229.28186093 325.26871715 226.55292242 325.26935395 223.82398392 325.270014 C198.22335802 325.27613229 172.62274618 325.27058461 147.02212244 325.2598202 C124.27645952 325.25032896 101.53081898 325.25117822 78.78515625 325.26074219 C53.23141511 325.27145096 27.6776864 325.27569838 2.12394333 325.26951766 C-0.60002899 325.26887622 -3.32400131 325.26825054 -6.04797363 325.26763153 C-6.7186873 325.26747338 -7.38940097 325.26731522 -8.0804393 325.26715227 C-18.20983892 325.26487713 -28.33922956 325.26753826 -38.46862793 325.27259064 C-49.98596176 325.27830665 -61.50327043 325.27669213 -73.02060127 325.26602915 C-78.89885586 325.26076663 -84.77706495 325.25872561 -90.65531921 325.26532745 C-96.03400068 325.27127695 -101.41259439 325.26802827 -106.79126787 325.25737235 C-108.73935245 325.25513409 -110.68744442 325.25628413 -112.63552427 325.26112393 C-115.27984757 325.26719066 -117.92386882 325.26098224 -120.56817627 325.25168228 C-121.70715905 325.25870578 -121.70715905 325.25870578 -122.86915159 325.26587117 C-128.2695122 325.22781793 -133.41795926 324.73315063 -137.99609375 321.66015625 C-141.25674056 318.04605179 -142.43103486 315.34682469 -142.625 310.4375 C-142.34003725 305.6063874 -141.35847612 302.63078499 -138 299 C-133.71766931 295.69426343 -129.85285794 295.60053379 -124.63671875 295.70703125 C-123.58272888 295.71156311 -123.58272888 295.71156311 -122.50744629 295.71618652 C-119.90064657 295.73179779 -117.29405742 295.77368161 -114.6875 295.8125 C-108.850625 295.874375 -103.01375 295.93625 -97 296 C-97 276.53 -97 257.06 -97 237 C-64.99 237 -32.98 237 0 237 C0 158.79 0 80.58 0 0 Z " fill="#D67D41" transform="translate(142,151)"/>
<path d="M0 0 C0.93368912 -0.00983414 1.86737823 -0.01966827 2.82936096 -0.02980042 C4.355261 -0.01529846 4.355261 -0.01529846 5.9119873 -0.00050354 C7.52719521 -0.00860802 7.52719521 -0.00860802 9.17503357 -0.01687622 C12.73802083 -0.02939378 16.30020485 -0.0128515 19.86315918 0.00511169 C22.33650759 0.00495678 24.80985625 0.00346902 27.28320312 0.0007019 C32.46833011 -0.00068345 37.65318094 0.01189932 42.83825684 0.03465271 C49.48997977 0.06303757 56.1410363 0.06030181 62.79282379 0.0475626 C67.90057303 0.04061289 73.00821588 0.04838668 78.11595154 0.06081963 C80.56879773 0.06534099 83.02165532 0.06566497 85.47450256 0.06175423 C88.90051751 0.05884904 92.3258964 0.07531678 95.75183105 0.09715271 C96.76909775 0.09265106 97.78636444 0.08814941 98.8344574 0.08351135 C99.76814651 0.09341599 100.70183563 0.10332062 101.66381836 0.11352539 C102.47348808 0.11595529 103.28315781 0.11838518 104.11736298 0.12088871 C106.90664752 0.59990856 108.29318383 1.56224317 110.33190918 3.50120544 C110.80187988 6.33030701 110.80187988 6.33030701 110.75769043 9.89183044 C110.75476486 10.5605014 110.75183929 11.22917236 110.74882507 11.91810608 C110.7334876 14.19643538 110.68886239 16.47327107 110.64440918 18.75120544 C110.62718777 20.37635207 110.61161641 22.00151686 110.59753418 23.62669373 C110.54908305 28.43078388 110.47106124 33.23408302 110.38909912 38.03770447 C110.32617113 41.84870973 110.27030887 45.65979409 110.21618652 49.47093201 C109.95471068 67.81497889 109.6569625 86.15816987 109.33190918 104.50120544 C102.40190918 104.50120544 95.47190918 104.50120544 88.33190918 104.50120544 C88.33190918 182.71120544 88.33190918 260.92120544 88.33190918 341.50120544 C56.32190918 341.50120544 24.31190918 341.50120544 -8.66809082 341.50120544 C-8.75622362 298.63747732 -8.83009904 255.77383443 -8.87235214 212.91004167 C-8.87735514 207.85302709 -8.88253242 202.79601271 -8.88781738 197.73899841 C-8.88886662 196.73221048 -8.88991587 195.72542254 -8.8909969 194.68812588 C-8.90841637 178.37251877 -8.93996253 162.05696787 -8.976702 145.74139413 C-9.01406856 129.0081547 -9.03631759 112.27494476 -9.0444448 95.54166532 C-9.04994148 85.21094355 -9.0673208 74.88038063 -9.09975669 64.54970774 C-9.12085171 57.4717845 -9.12730227 50.39394373 -9.12209633 43.31599131 C-9.11952671 39.22839886 -9.12354818 35.14108455 -9.14491272 31.05354118 C-9.16431574 27.31409558 -9.16540204 23.57511629 -9.1516864 19.83564964 C-9.14918437 17.83636168 -9.16649243 15.83707954 -9.18441606 13.83787036 C-9.17645186 12.65600186 -9.16848767 11.47413335 -9.16028214 10.25645065 C-9.16180102 9.23424352 -9.1633199 8.2120364 -9.16488481 7.15885329 C-8.20261671 2.01110632 -5.01132712 0.00129533 0 0 Z " fill="#FE6B81" transform="translate(53.6680908203125,46.49879455566406)"/>
<path d="M0 0 C1.00146484 1.98339844 1.00146484 1.98339844 1.7109375 4.609375 C1.98292969 5.58068359 2.25492187 6.55199219 2.53515625 7.55273438 C2.81230469 8.60783203 3.08945312 9.66292969 3.375 10.75 C3.82552734 12.37905273 3.82552734 12.37905273 4.28515625 14.04101562 C4.90472082 16.2826891 5.51763123 18.52621185 6.12402344 20.77148438 C7.36934106 25.36125032 8.68453666 29.92995996 10 34.5 C10.48718587 36.20957653 10.97416213 37.9192128 11.4609375 39.62890625 C13.45596801 46.61151302 15.49743255 53.58054182 17.53515625 60.55078125 C19.34855296 66.75662778 21.13812835 72.96858939 22.90625 79.1875 C24.41985565 84.46349682 25.96065972 89.73146296 27.5 95 C29.6589824 102.38932051 31.8009577 109.78267881 33.90625 117.1875 C35.41985565 122.46349682 36.96065972 127.73146296 38.5 133 C40.3491548 139.3289064 42.19682582 145.65780117 44 152 C45.76177203 158.19631786 47.56740435 164.37943677 49.375 170.5625 C51.85568432 179.04960722 54.30505466 187.54487914 56.72558594 196.04931641 C58.95864495 203.88281624 61.24024185 211.70186716 63.52636719 219.52001953 C65.4295805 226.03207807 67.30923415 232.54987932 69.15625 239.078125 C70.20487516 242.70947508 71.32975507 246.31508762 72.484375 249.9140625 C73 252 73 252 73 256 C61.08005128 259.72948094 49.13528018 263.29606987 37.0625 266.5 C20.26422764 270.96023958 3.56299785 275.73407982 -12.953125 281.15234375 C-16 282 -16 282 -20 282 C-32.03916906 240.1683566 -44.0662486 198.33325367 -56.08166504 156.49478149 C-65.14851068 124.92348799 -74.22097828 93.35381528 -83.29879665 61.78567505 C-84.22417596 58.5676523 -85.14952145 55.34961982 -86.07486916 52.13158798 C-86.70185402 49.95124606 -87.32891195 47.77092515 -87.95597839 45.59060669 C-88.33401745 44.27598137 -88.7120541 42.96135535 -89.09008789 41.64672852 C-89.41280167 40.52460464 -89.73551544 39.40248077 -90.06800842 38.24635315 C-90.37556564 37.17505661 -90.68312286 36.10376007 -91 35 C-91.36939194 33.79041122 -91.73878387 32.58082245 -92.11936951 31.33457947 C-93 28 -93 28 -93 24 C-92.06542969 23.78085938 -91.13085938 23.56171875 -90.16796875 23.3359375 C-82.91823789 21.599756 -75.77748552 19.68034251 -68.6875 17.375 C-54.22966705 12.69295903 -39.57396533 8.65047113 -24.94403076 4.54602051 C-23.17063538 4.04792641 -21.39801932 3.54705972 -19.62548828 3.04589844 C-16.94080741 2.28996162 -14.25301804 1.54733959 -11.5625 0.8125 C-10.82515625 0.60423584 -10.0878125 0.39597168 -9.328125 0.18139648 C-3.28338035 -1.43175807 -3.28338035 -1.43175807 0 0 Z " fill="#D4E16C" transform="translate(365,105)"/>
<path d="M0 0 C3.13731322 4.72595721 4.41535554 10.33150619 5.94140625 15.74609375 C6.36069397 17.20648764 6.36069397 17.20648764 6.78845215 18.69638443 C7.71873426 21.94184991 8.6405848 25.18964879 9.5625 28.4375 C10.22334791 30.74907302 10.8847371 33.06049136 11.54663086 35.37176514 C13.14702414 40.9648942 14.7421124 46.55951604 16.33494473 52.15480256 C18.19608201 58.69129344 20.06410812 65.22580901 21.93286896 71.76012373 C22.88088002 75.07495582 23.82865429 78.3898556 24.77636719 81.70477295 C24.96460934 82.36320482 25.15285149 83.02163668 25.34679794 83.70002103 C26.68697375 88.38820294 28.02593223 93.07673149 29.36425781 97.76544189 C35.67297117 119.86720933 42.0105894 141.9605967 48.36154175 164.05026245 C49.99664642 169.73773543 51.63042698 175.42558821 53.26391602 181.11352539 C58.57135591 199.59368662 63.88327636 218.07255008 69.20139694 236.54964066 C70.94357756 242.60317991 72.68503006 248.65692868 74.42647362 254.71068001 C76.0681353 260.41717579 77.71108201 266.12329942 79.35506344 271.82912731 C80.36474824 275.3345969 81.37322127 278.84041428 82.38138008 282.34632301 C82.84326701 283.95161446 83.30564925 285.5567635 83.76859856 287.16174889 C86.62880824 297.07877928 89.38043107 307.01643247 92 317 C90.87964859 317.3864418 89.75929718 317.77288361 88.60499573 318.17103577 C86.65475531 318.84449524 84.7048548 319.51897402 82.75756836 320.20092773 C78.50087507 321.64378618 74.46726312 322.49460092 70 323 C66.72688619 313.85941489 64.03952125 304.63581737 61.5625 295.25 C59.54455026 287.60412187 57.45556107 280.01732608 55 272.5 C52.21054891 263.9535173 49.90088149 255.30377401 47.60546875 246.61328125 C45.69294256 239.42656388 43.58250893 232.34490376 41.27392578 225.27709961 C38.72878695 217.3770225 36.62310821 209.36336274 34.53515625 201.33203125 C33.17974878 196.16735065 31.73120618 191.08224486 30.0078125 186.02734375 C27.50644251 178.68714977 25.59555169 171.21212112 23.64453125 163.7109375 C22.24716168 158.41231441 20.76895183 153.18756202 19 148 C16.50025578 140.66934355 14.59314378 133.20286332 12.64453125 125.7109375 C10.97875659 119.3945612 9.09842497 113.21804909 6.99072266 107.03613281 C5.25265196 101.70970425 3.85747379 96.29323708 2.4375 90.875 C0.41556201 83.20867192 -1.66175766 75.57663022 -4 68 C-11.17648129 69.33850175 -18.20715534 71.02148162 -25.25 72.9375 C-26.88243652 73.37896362 -26.88243652 73.37896362 -28.54785156 73.8293457 C-42.1555131 77.54231477 -55.69295332 81.50299405 -69.234375 85.44921875 C-72.15608595 86.30004385 -75.07798863 87.15020728 -78 88 C-78.68344482 88.19901917 -79.36688965 88.39803833 -80.07104492 88.60308838 C-81.98942043 89.16081407 -83.9087512 89.71525087 -85.828125 90.26953125 C-86.90481445 90.58124268 -87.98150391 90.8929541 -89.09082031 91.21411133 C-91.71684854 91.92350919 -94.32636993 92.50448311 -97 93 C-98.24664425 88.58962243 -99.49170103 84.17880081 -100.73535156 79.76757812 C-101.15777747 78.27006216 -101.58062092 76.7726639 -102.00390625 75.27539062 C-102.6157093 73.11099306 -103.22596015 70.9461627 -103.8359375 68.78125 C-104.02247894 68.12257935 -104.20902039 67.46390869 -104.4012146 66.78527832 C-105.33716466 63.45780491 -106.2264108 60.12414904 -107.05249023 56.76806641 C-107.72480682 54.09439103 -108.42061086 51.52671826 -109.32421875 48.9296875 C-109.65969727 47.92615234 -109.65969727 47.92615234 -110.00195312 46.90234375 C-110.46256582 45.54018998 -110.93145804 44.18081046 -111.40820312 42.82421875 C-112.83343623 38.50254416 -113.2845667 35.39491347 -112 31 C-109.43937597 28.43937597 -107.38833854 28.08187668 -103.90258789 27.09570312 C-103.27576614 26.91640259 -102.6489444 26.73710205 -102.00312805 26.55236816 C-99.91136499 25.95572242 -97.81706619 25.36853062 -95.72265625 24.78125 C-94.23977854 24.36024378 -92.75706978 23.93864211 -91.27452087 23.51647949 C-87.3357891 22.3966015 -83.39486986 21.28462045 -79.45343018 20.17431641 C-74.82221238 18.86816946 -70.1936316 17.55271789 -65.56465721 16.23864746 C-61.7247391 15.1490053 -57.8841264 14.06194817 -54.04190063 12.98046875 C-46.8628901 10.95805026 -39.69024376 8.91869668 -32.53587818 6.81049347 C-29.29924818 5.85683244 -26.06042885 4.91072003 -22.82159233 3.96458435 C-21.28452908 3.51292718 -19.74864496 3.05723558 -18.21403694 2.5973053 C-16.09269229 1.96170336 -13.96774011 1.33987734 -11.84155273 0.72070312 C-10.03520607 0.18467468 -10.03520607 0.18467468 -8.19236755 -0.36218262 C-4.8847193 -1.02303245 -3.09709237 -1.34653099 0 0 Z " fill="#D3E16B" transform="translate(368,37)"/>
<path d="M0 0 C1.00458244 0.00959692 1.00458244 0.00959692 2.02945948 0.01938772 C19.165679 0.18342826 36.30155579 0.37016079 53.4375 0.5625 C53.4375 20.0325 53.4375 39.5025 53.4375 59.5625 C-17.8425 59.5625 -89.1225 59.5625 -162.5625 59.5625 C-162.5625 40.0925 -162.5625 20.6225 -162.5625 0.5625 C-148.87507621 0.35849116 -135.18789173 0.1657726 -121.5 0 C-120.44977283 -0.01273327 -119.39954567 -0.02546654 -118.31749344 -0.03858566 C-78.87243329 -0.50814225 -39.44412759 -0.37816918 0 0 Z " fill="#415E6F" transform="translate(207.5625,387.4375)"/>
<path d="M0 0 C4.03954344 13.01482041 7.95440963 26.06734808 11.75421143 39.15414429 C12.20776421 40.71127464 12.66456545 42.26746268 13.12469482 43.82266235 C13.77845631 46.0354824 14.41989595 48.25154195 15.05859375 50.46875 C15.25514053 51.12530075 15.45168732 51.7818515 15.65419006 52.45829773 C16.86842383 56.73714903 17.42609404 60.56188529 17 65 C14.50047747 68.77982346 10.06347507 69.45234611 5.94628906 70.63549805 C5.12448151 70.87977539 4.30267395 71.12405273 3.45596313 71.37573242 C0.72901184 72.18231313 -2.00213167 72.97326235 -4.734375 73.76171875 C-5.67378181 74.03478159 -6.61318863 74.30784443 -7.58106232 74.5891819 C-12.57111867 76.03958167 -17.56435291 77.47836187 -22.56054688 78.9074707 C-27.66380875 80.36942323 -32.75541714 81.86817694 -37.84508896 83.37665081 C-41.80499749 84.54285594 -45.77261381 85.68097488 -49.74262238 86.8122654 C-51.61894187 87.35187872 -53.49246024 87.90135325 -55.36266327 88.46179771 C-69.4421805 92.66506504 -82.32785583 93.70476435 -97 93 C-98.67166149 88.6106505 -100.29974264 84.25698595 -101.62573242 79.74902344 C-101.90579636 78.80154236 -102.18586029 77.85406128 -102.47441101 76.87786865 C-102.76516006 75.88176575 -103.05590912 74.88566284 -103.35546875 73.859375 C-103.66196854 72.81477112 -103.96846832 71.77016724 -104.28425598 70.69390869 C-104.92701022 68.49920218 -105.56815319 66.3040232 -106.20776367 64.10839844 C-107.18898629 60.7449052 -108.17921366 57.38414727 -109.16992188 54.0234375 C-109.79482026 51.88557719 -110.41918788 49.74756164 -111.04296875 47.609375 C-111.3397905 46.60517517 -111.63661224 45.60097534 -111.94242859 44.56634521 C-112.21303604 43.63147278 -112.48364349 42.69660034 -112.76245117 41.73339844 C-113.00211105 40.91369568 -113.24177094 40.09399292 -113.48869324 39.24945068 C-114 37 -114 37 -114 33 C-101.34751603 28.8151842 -88.64554007 25.02733291 -75.75952148 21.62890625 C-67.55868423 19.45350837 -59.44415851 17.0625229 -51.33886719 14.55688477 C-44.16715908 12.34231205 -36.96688081 10.25171454 -29.74365234 8.2121582 C-22.54129119 6.17252107 -15.37347146 4.02629593 -8.21801758 1.82788086 C-2.21335215 0 -2.21335215 0 0 0 Z " fill="#56788A" transform="translate(460,354)"/>
<path d="M0 0 C1.6152079 -0.00810448 1.6152079 -0.00810448 3.26304626 -0.01637268 C6.82603352 -0.02889024 10.38821755 -0.01234796 13.95117188 0.00561523 C16.42452029 0.00546032 18.89786895 0.00397256 21.37121582 0.00120544 C26.55634281 -0.00017991 31.74119364 0.01240286 36.92626953 0.03515625 C43.57799246 0.06354111 50.229049 0.06080535 56.88083649 0.04806614 C61.98858572 0.04111643 67.09622858 0.04889022 72.20396423 0.06132317 C74.65681043 0.06584453 77.10966801 0.06616851 79.56251526 0.06225777 C82.98853021 0.05935258 86.41390909 0.07582032 89.83984375 0.09765625 C90.85711044 0.0931546 91.87437714 0.08865295 92.92247009 0.08401489 C93.85615921 0.09391953 94.78984833 0.10382416 95.75183105 0.11402893 C96.56150078 0.11645883 97.3711705 0.11888872 98.20537567 0.12139225 C101.01258838 0.60349101 102.38847331 1.52328588 104.41992188 3.50170898 C104.79122577 6.23836336 104.91004585 8.56595197 104.84570312 11.29858398 C104.84077095 12.47556854 104.84077095 12.47556854 104.83573914 13.67633057 C104.81998907 16.2020116 104.77615375 18.72637434 104.73242188 21.25170898 C104.72091675 22.87409341 104.71113567 24.49649104 104.703125 26.11889648 C104.58628626 38.94067862 103.97743362 51.67893884 103.41992188 64.50170898 C64.47992188 64.50170898 25.53992187 64.50170898 -14.58007812 64.50170898 C-14.66257813 54.68420898 -14.74507812 44.86670898 -14.83007812 34.75170898 C-14.86649414 31.65570313 -14.90291016 28.55969727 -14.94042969 25.36987305 C-14.95211087 22.91903376 -14.96230404 20.46818672 -14.97070312 18.01733398 C-14.99116699 16.74229004 -15.01163086 15.46724609 -15.03271484 14.15356445 C-15.03319824 12.93588379 -15.03368164 11.71820313 -15.03417969 10.46362305 C-15.04306213 9.40661194 -15.05194458 8.34960083 -15.06109619 7.26055908 C-14.58007812 4.50170898 -14.58007812 4.50170898 -13.21295166 2.16044617 C-9.01542426 -0.48403891 -4.8616539 -0.04620452 0 0 Z " fill="#FE6B80" transform="translate(59.580078125,46.498291015625)"/>
<path d="M0 0 C0.91216278 -0.0049649 1.82432556 -0.00992981 2.76412964 -0.01504517 C5.79604839 -0.02970733 8.82791483 -0.03647551 11.85986328 -0.04199219 C13.95875043 -0.0477403 16.05763756 -0.05349807 18.15652466 -0.05926514 C22.56333665 -0.06978667 26.97013033 -0.07562179 31.37695312 -0.07910156 C37.03219392 -0.08458873 42.68719423 -0.10861675 48.34235954 -0.13707352 C52.67970493 -0.15566928 57.01699204 -0.16090386 61.35437393 -0.16243744 C63.43964071 -0.16547143 65.52490628 -0.1735249 67.61013412 -0.18662262 C70.52413124 -0.20361921 73.43753636 -0.20181852 76.3515625 -0.1953125 C77.21817505 -0.20452728 78.0847876 -0.21374207 78.97766113 -0.22323608 C84.89249035 -0.18172877 84.89249035 -0.18172877 86.98784065 1.5591011 C89.53814165 4.66056175 89.4270937 6.85970893 89.41870117 10.80419922 C89.41858032 12.00181885 89.41845947 13.19943848 89.41833496 14.43334961 C89.41321899 15.69703369 89.40810303 16.96071777 89.40283203 18.26269531 C89.40182495 19.42051514 89.40081787 20.57833496 89.39978027 21.77124023 C89.39453564 26.10954779 89.38057445 30.44784126 89.36767578 34.78613281 C89.34705078 44.47988281 89.32642578 54.17363281 89.30517578 64.16113281 C56.63517578 64.16113281 23.96517578 64.16113281 -9.69482422 64.16113281 C-9.71544922 53.78675781 -9.73607422 43.41238281 -9.75732422 32.72363281 C-9.76642822 29.44369385 -9.77553223 26.16375488 -9.78491211 22.78442383 C-9.78783098 20.20296266 -9.7903796 17.62150103 -9.79248047 15.04003906 C-9.79509384 14.36504868 -9.79770721 13.69005829 -9.80039978 12.99461365 C-9.80768082 11.01570783 -9.80816262 9.03678053 -9.80834961 7.05786133 C-9.81057022 5.94089371 -9.81279083 4.82392609 -9.81507874 3.67311096 C-9.55268153 -1.80806411 -4.31004094 0.00553375 0 0 Z " fill="#F8D01F" transform="translate(172.69482421875,86.8388671875)"/>
<path d="M0 0 C0.81468391 1.6760273 0.81468391 1.6760273 1.44534302 3.90066528 C1.69095128 4.74375118 1.93655954 5.58683708 2.18961048 6.45547104 C2.44817672 7.39071735 2.70674295 8.32596367 2.97314453 9.28955078 C3.39709393 10.76517172 3.39709393 10.76517172 3.82960796 12.27060318 C4.77590252 15.57557299 5.70421532 18.8853305 6.6328125 22.1953125 C7.29955812 24.53682735 7.96744344 26.87801794 8.63639832 29.21890259 C10.0666033 34.2325569 11.48931347 39.248272 12.90518188 44.26599121 C14.9371952 51.46699495 16.98274035 58.66409513 19.03249896 65.86006546 C19.97207106 69.15859952 20.91115878 72.45727142 21.85011292 75.75598145 C22.03654828 76.41095454 22.22298365 77.06592764 22.41506857 77.74074841 C23.74165586 82.4023536 25.06561948 87.0646992 26.38829041 91.72741699 C31.09531193 108.31972611 35.83097425 124.90352152 40.60546875 141.4765625 C40.89683716 142.48820087 41.18820557 143.49983925 41.48840332 144.54213333 C43.16271273 150.3549142 44.83805452 156.16739706 46.51381683 161.97975922 C48.5498507 169.04176364 50.58512792 176.10398152 52.61614418 183.16743088 C53.26896342 185.43629269 53.92340105 187.70468296 54.57792664 189.97305298 C57.16309834 198.95392649 59.62619705 207.96080004 62 217 C60.31947289 217.5796627 60.31947289 217.5796627 58.60499573 218.17103577 C56.65475531 218.84449524 54.7048548 219.51897402 52.75756836 220.20092773 C48.50087507 221.64378618 44.46726312 222.49460092 40 223 C36.72688619 213.85941489 34.03952125 204.63581737 31.5625 195.25 C29.54455026 187.60412187 27.45556107 180.01732608 25 172.5 C22.21054891 163.9535173 19.90088149 155.30377401 17.60546875 146.61328125 C15.69294256 139.42656388 13.58250893 132.34490376 11.27392578 125.27709961 C8.72878695 117.3770225 6.62310821 109.36336274 4.53515625 101.33203125 C3.17974878 96.16735065 1.73120618 91.08224486 0.0078125 86.02734375 C-2.49355749 78.68714977 -4.40444831 71.21212112 -6.35546875 63.7109375 C-8.02124341 57.3945612 -9.90157503 51.21804909 -12.00927734 45.03613281 C-13.74734804 39.70970425 -15.14252621 34.29323708 -16.5625 28.875 C-18.58443799 21.20867192 -20.66175766 13.57663022 -23 6 C-19.938387 2.938387 -16.17012306 2.43450443 -12.0625 1.3125 C-10.8259668 0.95575195 -10.8259668 0.95575195 -9.56445312 0.59179688 C-8.77103516 0.37201172 -7.97761719 0.15222656 -7.16015625 -0.07421875 C-6.07166382 -0.37718872 -6.07166382 -0.37718872 -4.96118164 -0.6862793 C-3 -1 -3 -1 0 0 Z " fill="#A5CE39" transform="translate(398,137)"/>
<path d="M0 0 C6.93 0 13.86 0 21 0 C21 77.88 21 155.76 21 236 C14.07 236 7.14 236 0 236 C0 158.12 0 80.24 0 0 Z " fill="#ED2261" transform="translate(142,151)"/>
<path d="M0 0 C38.94 0 77.88 0 118 0 C118 13.2 118 26.4 118 40 C79.06 40 40.12 40 0 40 C0 26.8 0 13.6 0 0 Z " fill="#FCECA4" transform="translate(45,111)"/>
<path d="M0 0 C7.26 0 14.52 0 22 0 C22 64.35 22 128.7 22 195 C14.74 195 7.48 195 0 195 C0 130.65 0 66.3 0 0 Z " fill="#FEA502" transform="translate(240,192)"/>
<path d="M0 0 C4.03954344 13.01482041 7.95440963 26.06734808 11.75421143 39.15414429 C12.20776421 40.71127464 12.66456545 42.26746268 13.12469482 43.82266235 C13.77845631 46.0354824 14.41989595 48.25154195 15.05859375 50.46875 C15.25514053 51.12530075 15.45168732 51.7818515 15.65419006 52.45829773 C16.86842383 56.73714903 17.42609404 60.56188529 17 65 C14.50047747 68.77982346 10.06347507 69.45234611 5.94628906 70.63549805 C5.12448151 70.87977539 4.30267395 71.12405273 3.45596313 71.37573242 C0.72901184 72.18231313 -2.00213167 72.97326235 -4.734375 73.76171875 C-5.67378181 74.03478159 -6.61318863 74.30784443 -7.58106232 74.5891819 C-12.57111867 76.03958167 -17.56435291 77.47836187 -22.56054688 78.9074707 C-27.66380875 80.36942323 -32.75541714 81.86817694 -37.84508896 83.37665081 C-41.80499749 84.54285594 -45.77261381 85.68097488 -49.74262238 86.8122654 C-51.61894187 87.35187872 -53.49246024 87.90135325 -55.36266327 88.46179771 C-69.4421805 92.66506504 -82.32785583 93.70476435 -97 93 C-98.7526292 88.50558648 -100.32787175 84.26101798 -101.1875 79.5 C-101.34605469 78.6440625 -101.50460937 77.788125 -101.66796875 76.90625 C-101.83232422 75.96265625 -101.83232422 75.96265625 -102 75 C-95.0157063 72.84899945 -88.03122668 70.69860332 -81.04663086 68.54858398 C-78.68168141 67.82052574 -76.31677111 67.09234031 -73.9519043 66.36401367 C-71.65469332 65.65654105 -69.35738087 64.94939784 -67.05996704 64.24258423 C-64.76437043 63.5356623 -62.46926564 62.82714133 -60.1746521 62.11703491 C-54.59518374 60.39403025 -49.01017659 58.70320197 -43.39892578 57.08642578 C-42.35656265 56.78197037 -41.31419952 56.47751495 -40.24024963 56.16383362 C-38.29585585 55.59765568 -36.34837415 55.04192526 -34.39732361 54.49913025 C-28.08022324 52.64670308 -22.75000048 50.32894795 -18.44140625 45.11328125 C-13.66070098 35.31814734 -16.36188846 26.57394402 -19.30834961 16.6003418 C-19.5378833 15.80668213 -19.76741699 15.01302246 -20.00390625 14.1953125 C-20.21861572 13.48391113 -20.4333252 12.77250977 -20.65454102 12.03955078 C-21.0609024 9.6404391 -20.94948612 8.24261282 -20 6 C-17.29546582 4.77066628 -14.82388073 3.85405173 -12 3 C-11.11441406 2.71898437 -10.22882813 2.43796875 -9.31640625 2.1484375 C-2.39924065 0 -2.39924065 0 0 0 Z " fill="#415E6F" transform="translate(460,354)"/>
<path d="M0 0 C32.67 0 65.34 0 99 0 C99 13.2 99 26.4 99 40 C66.33 40 33.66 40 0 40 C0 26.8 0 13.6 0 0 Z " fill="#FDEDA5" transform="translate(163,151)"/>
<path d="M0 0 C1.04907227 2.11035156 1.04907227 2.11035156 1.81640625 4.890625 C2.10580078 5.9115625 2.39519531 6.9325 2.69335938 7.984375 C3.12358398 9.60085937 3.12358398 9.60085937 3.5625 11.25 C3.85318359 12.28125 4.14386719 13.3125 4.44335938 14.375 C6.52557924 21.86540166 8.27024326 29.42176547 10 37 C1.95733996 39.35817336 -6.08581215 41.71465875 -14.12953854 44.06919193 C-17.8675925 45.16343572 -21.60549629 46.25818609 -25.34301758 47.35424805 C-40.02792925 51.66028084 -54.71552924 55.95686185 -69.44140625 60.12109375 C-70.99540382 60.56449852 -70.99540382 60.56449852 -72.58079529 61.01686096 C-73.99401817 61.41348183 -73.99401817 61.41348183 -75.43579102 61.81811523 C-76.25064468 62.04812729 -77.06549835 62.27813934 -77.90504456 62.51512146 C-80 63 -80 63 -83 63 C-84.43094272 58.09064866 -85.85490397 53.17934646 -87.27246094 48.26611328 C-87.75557632 46.59531223 -88.24058783 44.92505823 -88.72753906 43.25537109 C-89.42753489 40.85395685 -90.12066637 38.45065159 -90.8125 36.046875 C-91.03123779 35.30193787 -91.24997559 34.55700073 -91.4753418 33.78948975 C-92.45760766 30.3530415 -93 27.60661671 -93 24 C-92.06542969 23.78085938 -91.13085938 23.56171875 -90.16796875 23.3359375 C-82.91823789 21.599756 -75.77748552 19.68034251 -68.6875 17.375 C-54.22966705 12.69295903 -39.57396533 8.65047113 -24.94403076 4.54602051 C-23.17063538 4.04792641 -21.39801932 3.54705972 -19.62548828 3.04589844 C-16.94080741 2.28996162 -14.25301804 1.54733959 -11.5625 0.8125 C-10.82515625 0.60423584 -10.0878125 0.39597168 -9.328125 0.18139648 C-3.24774218 -1.44126878 -3.24774218 -1.44126878 0 0 Z " fill="#FCECA4" transform="translate(365,105)"/>
<path d="M0 0 C32.01 0 64.02 0 97 0 C97 28.7424594 97 28.7424594 92.31640625 33.828125 C91.73761719 34.29734375 91.15882813 34.7665625 90.5625 35.25 C89.98628906 35.72953125 89.41007812 36.2090625 88.81640625 36.703125 C84.23635725 39.97318149 80.4853664 40.27952272 74.92675781 40.22705078 C74.11662735 40.22734283 73.30649689 40.22763489 72.47181702 40.22793579 C69.79881006 40.22654443 67.12608316 40.21099238 64.453125 40.1953125 C62.59796297 40.19158168 60.74279898 40.18873503 58.88763428 40.18673706 C54.00826565 40.17910604 49.12901635 40.15946207 44.24969482 40.1373291 C38.39348313 40.11325938 32.53723151 40.10408716 26.6809845 40.09242249 C17.78724004 40.0730374 8.89375735 40.03471111 0 40 C0 26.8 0 13.6 0 0 Z " fill="#55778A" transform="translate(45,388)"/>
<path d="M0 0 C25.41 0 50.82 0 77 0 C77 25 77 25 73 33 C67.69070622 38.08807321 64.0954185 40.25638167 56.76269531 40.22705078 C54.87118744 40.22682419 54.87118744 40.22682419 52.94146729 40.22659302 C51.57035158 40.21638056 50.19923749 40.20594858 48.828125 40.1953125 C47.42136842 40.19158057 46.01460923 40.18873445 44.60784912 40.18673706 C40.91213761 40.17911476 37.21658425 40.15947845 33.52093506 40.1373291 C29.74705178 40.11684036 25.97314208 40.10761918 22.19921875 40.09765625 C14.79933967 40.07729335 7.39989441 40.03814379 0 40 C0 26.8 0 13.6 0 0 Z " fill="#56788A" transform="translate(163,388)"/>
<path d="M0 0 C6.41444148 5.27247652 7.49286409 14.1656027 9.66796875 21.8359375 C11.56795192 28.50564264 13.49437678 35.16745614 15.42578125 41.828125 C16.39267303 45.16694117 17.35931646 48.50582917 18.32592773 51.84472656 C18.97748427 54.0936527 19.62981308 56.34235526 20.28295898 58.59082031 C24.19460402 72.06041612 27.98170384 85.55296164 31.59620667 99.10542297 C33.64892006 106.77394232 35.84335692 114.37161583 38.25 121.9375 C45.90795053 146.23325972 45.90795053 146.23325972 45 151 C42.9375 153.9375 42.9375 153.9375 40 156 C36.375 156.0625 36.375 156.0625 33 155 C30.43798825 152.21452993 29.38857278 149.6091574 28.421875 145.984375 C28.15221924 144.99445557 27.88256348 144.00453613 27.60473633 142.98461914 C27.32267334 141.91719482 27.04061035 140.84977051 26.75 139.75 C26.12487333 137.45150291 25.4985446 135.15333246 24.87109375 132.85546875 C24.55640137 131.6957959 24.24170898 130.53612305 23.91748047 129.34130859 C22.60588138 124.56468667 21.21430131 119.81328429 19.8125 115.0625 C17.55192202 107.37190797 15.33037945 99.67084136 13.13671875 91.9609375 C12.88257202 91.06787399 12.62842529 90.17481049 12.36657715 89.25468445 C11.84265551 87.41343641 11.31875027 85.57218371 10.79486084 83.73092651 C10.53255676 82.80909576 10.27025269 81.88726501 10 80.9375 C9.73769592 80.01558868 9.47539185 79.09367737 9.20513916 78.14382935 C6.28837059 67.90068668 3.34267726 57.67283814 0.1875 47.5 C-2.32302863 39.37004976 -4.6798353 31.2038923 -6.9375 23 C-7.24469971 21.90623047 -7.55189941 20.81246094 -7.8684082 19.68554688 C-9.31866987 14.33459586 -10.56039303 9.55162699 -10 4 C-7.26646839 -0.10029741 -4.80388991 -0.80064832 0 0 Z " fill="#FEFEFB" transform="translate(340,192)"/>
<path d="M0 0 C4.12452751 0.75756628 5.42581417 2.35280857 8.0625 5.5625 C8.6917057 8.52199554 8.6917057 8.52199554 8.69741821 11.8626709 C8.71151733 13.13285568 8.72561646 14.40304047 8.74014282 15.7117157 C8.73042214 17.1118505 8.72018134 18.51198178 8.70947266 19.91210938 C8.71625075 21.39241104 8.72515497 22.87270428 8.73602295 24.35298157 C8.75880063 28.36756663 8.7499867 32.38150863 8.73412752 36.39610481 C8.72146041 40.59917039 8.73321088 44.80218126 8.74105835 49.00524902 C8.75015258 56.06333289 8.73817307 63.12115509 8.71435547 70.17919922 C8.68714445 78.33700006 8.69595879 86.4941761 8.7234875 94.6519618 C8.74618414 101.65850656 8.74937599 108.66486333 8.73629415 115.67143297 C8.72850262 119.85509004 8.72744964 124.03845352 8.74397659 128.22209167 C8.75843039 132.15562851 8.74838412 136.08836056 8.71950531 140.02181053 C8.71289919 141.46455232 8.71478423 142.90736196 8.72581863 144.35007668 C8.73950075 146.32080273 8.71929256 148.29167695 8.69741821 150.2623291 C8.69553308 151.36475197 8.69364796 152.46717484 8.6917057 153.60300446 C7.8534655 157.54570256 6.15647622 159.06396421 3.0625 161.5625 C0 162.125 0 162.125 -2.9375 161.5625 C-5.75954943 159.40680351 -6.82080904 158.22793933 -7.44086456 154.69202423 C-7.44237267 153.57263206 -7.44388077 152.4532399 -7.44543457 151.29992676 C-7.45671387 150.01284317 -7.46799316 148.72575958 -7.47961426 147.39967346 C-7.47183722 145.9754311 -7.46364456 144.55119096 -7.45507812 143.12695312 C-7.46049887 141.62547629 -7.46762127 140.12400477 -7.47631836 138.62254333 C-7.49456053 134.54606281 -7.48748068 130.46998702 -7.47480202 126.39349937 C-7.4646789 122.1285734 -7.47406578 117.86368221 -7.48034668 113.59875488 C-7.48762511 106.43637873 -7.47803031 99.27416752 -7.45898438 92.11181641 C-7.43721518 83.82969522 -7.44426642 75.5479679 -7.46629 67.26585627 C-7.48443849 60.15660813 -7.48700504 53.0474786 -7.47653532 45.93821478 C-7.47029733 41.69145596 -7.46947307 37.44488231 -7.48268127 33.19813538 C-7.49423123 29.2056286 -7.48623018 25.2136299 -7.46310425 21.22117805 C-7.45781251 19.75543626 -7.45933894 18.28965176 -7.46815491 16.82392693 C-7.47907368 14.8243245 -7.46295758 12.8246287 -7.44543457 10.82507324 C-7.44392647 9.70568108 -7.44241837 8.58628891 -7.44086456 7.43297577 C-6.63955364 2.86343757 -4.50738232 0.86311576 0 0 Z " fill="#FFFBFC" transform="translate(86.9375,189.4375)"/>
<path d="M0 0 C3.80267657 0.72817211 4.70549242 1.37814953 6.9375 4.5625 C7.54908726 8.14442267 7.48341951 11.70000858 7.45507812 15.32617188 C7.4620874 16.42248428 7.46909668 17.51879669 7.47631836 18.64833069 C7.49393943 22.27622727 7.48226029 25.90334533 7.46875 29.53125 C7.47144371 32.04944 7.47532512 34.56762899 7.48034668 37.08581543 C7.48624731 42.36507122 7.47804109 47.64412409 7.45898438 52.92333984 C7.43721567 59.02424614 7.44426722 65.12461773 7.46629 71.22551107 C7.48663798 77.09779565 7.48447312 82.96987718 7.47276306 88.84217834 C7.47009147 91.33968684 7.47338063 93.83720894 7.48268127 96.33470154 C7.49282061 99.8231134 7.47738081 103.31049328 7.45507812 106.79882812 C7.46317505 107.8347963 7.47127197 108.87076447 7.47961426 109.93812561 C7.39707095 116.89413159 7.39707095 116.89413159 5.12390137 120.20007324 C1.85770352 122.23536073 -0.30264087 122.16676308 -4.0625 121.5625 C-6.57792331 119.41265021 -7.88165641 117.64787698 -8.43206978 114.34443665 C-8.59207637 111.51740318 -8.61420481 108.71633329 -8.59594727 105.88476562 C-8.60456284 104.80942062 -8.61317841 103.73407562 -8.62205505 102.62614441 C-8.64474819 99.07343441 -8.63796994 95.521511 -8.62890625 91.96875 C-8.63414008 89.4992245 -8.64041567 87.029701 -8.64768982 84.56018066 C-8.65810008 79.38523957 -8.65352288 74.21057336 -8.63891602 69.03564453 C-8.62172215 62.40074387 -8.64522892 55.76670869 -8.68040562 49.1319046 C-8.70235397 44.0326767 -8.70094433 38.93365673 -8.6926403 33.83439636 C-8.6918195 31.38794505 -8.69870749 28.94147867 -8.71341133 26.49507141 C-8.73081006 23.07624918 -8.7163518 19.65899326 -8.69360352 16.24023438 C-8.70529572 15.228134 -8.71698792 14.21603363 -8.72903442 13.17326355 C-8.66546428 8.4830112 -8.59622995 6.27447753 -5.71446228 2.43029785 C-3.0625 0.5625 -3.0625 0.5625 0 0 Z " fill="#FEFEFB" transform="translate(213.0625,228.4375)"/>
<path d="M0 0 C4.94493305 3.43995343 5.82371059 8.93907089 7.375 14.4375 C7.67825195 15.47318115 7.98150391 16.5088623 8.29394531 17.57592773 C9.2091278 20.71366205 10.10651426 23.856028 11 27 C11.46559053 28.61734746 11.93169142 30.23454814 12.3984375 31.8515625 C13.33839201 35.12025771 14.26874318 38.39154978 15.1953125 41.6640625 C17.87046129 51.08881746 20.61184684 60.49462988 23.34020996 69.90408325 C23.5717981 70.70280853 23.80338623 71.50153381 24.04199219 72.32446289 C24.27035767 73.1118132 24.49872314 73.89916351 24.73400879 74.71037292 C25.18421295 76.26492481 25.63336564 77.81978162 26.0814209 79.37495422 C27.10994344 82.94384777 28.1491871 86.50821433 29.22558594 90.06298828 C29.59200195 91.29130371 29.95841797 92.51961914 30.3359375 93.78515625 C30.65868652 94.84742432 30.98143555 95.90969238 31.31396484 97.00415039 C32.0351448 100.15347396 32.26819456 102.78138416 32 106 C29.9375 108.9375 29.9375 108.9375 27 111 C23.375 111.0625 23.375 111.0625 20 110 C16.45492313 106.51378352 15.59561208 101.88267244 14.328125 97.23046875 C14.08493027 96.36605667 13.84173553 95.50164459 13.59117126 94.61103821 C12.80317066 91.80526017 12.02671544 88.99642065 11.25 86.1875 C10.17166928 82.33619714 9.08759915 78.48651565 8.00390625 74.63671875 C7.74035843 73.6972641 7.47681061 72.75780945 7.20527649 71.78988647 C5.2953225 64.99583905 3.29071939 58.23689404 1.1875 51.5 C-2.32259281 40.21023404 -5.35248913 28.79601426 -8.35498047 17.36230469 C-8.8474548 15.55867803 -9.408764 13.773708 -10 12 C-10.87222731 4.10705775 -10.87222731 4.10705775 -8.375 0.9375 C-5.29946814 -0.27652573 -3.28060601 -0.47842171 0 0 Z " fill="#FEFEFB" transform="translate(380,205)"/>
<path d="M0 0 C3.78194637 0.7242025 4.7009449 1.41499495 6.9375 4.5625 C7.54940649 7.96099472 7.49389375 11.329966 7.47094727 14.77539062 C7.47956284 15.81318161 7.48817841 16.8509726 7.49705505 17.92021179 C7.51977245 21.35331099 7.51296557 24.78559779 7.50390625 28.21875 C7.50913903 30.60241947 7.51541423 32.98608686 7.52268982 35.36975098 C7.53310457 40.36655417 7.52851653 45.36307276 7.51391602 50.35986328 C7.49672197 56.76958091 7.52022661 63.17840268 7.55540562 69.58802032 C7.5773436 74.51049767 7.57594686 79.43275945 7.5676403 84.35527039 C7.56681891 86.71881595 7.57371797 89.08237704 7.58841133 91.44587708 C7.60579105 94.74768505 7.59136818 98.04786746 7.56860352 101.34960938 C7.58029572 102.32947311 7.59198792 103.30933685 7.60403442 104.31889343 C7.51138341 110.90884 7.51138341 110.90884 4.62461853 114.19689941 C0.9076482 116.08587335 -1.12224062 115.80295203 -5.0625 114.5625 C-8.96272261 110.07304733 -8.4998529 105.15792282 -8.48242188 99.52734375 C-8.49089142 98.52027374 -8.49936096 97.51320374 -8.50808716 96.47561646 C-8.53146602 93.15028216 -8.53247919 89.82541022 -8.53125 86.5 C-8.53835023 84.18741673 -8.54604902 81.87483523 -8.55432129 79.56225586 C-8.56776758 74.7169098 -8.56933377 69.87172669 -8.56347656 65.02636719 C-8.55757571 58.81521587 -8.58818819 52.60484491 -8.62859344 46.3938446 C-8.65443121 41.61889427 -8.65735148 36.84413292 -8.65370178 32.06912231 C-8.65539621 29.77896155 -8.66506962 27.48879235 -8.68284607 25.19869995 C-8.70496093 21.99781877 -8.69537137 18.7985316 -8.67773438 15.59765625 C-8.69099762 14.65101105 -8.70426086 13.70436584 -8.71792603 12.72903442 C-8.65967952 8.1835569 -8.53880064 6.18998714 -5.7154541 2.47045898 C-3.0625 0.5625 -3.0625 0.5625 0 0 Z " fill="#FFFAFB" transform="translate(122.0625,212.4375)"/>
<path d="M0 0 C3.56952811 5.20978907 4.86374411 11.87105466 6.57421875 17.890625 C6.90291458 19.0315863 7.23161041 20.17254761 7.57026672 21.3480835 C8.26128547 23.75111731 8.94947536 26.15496618 9.63500977 28.55957031 C10.68823445 32.25257528 11.75060847 35.94285443 12.81445312 39.6328125 C13.48491173 41.96859601 14.15485179 44.30452843 14.82421875 46.640625 C15.14291428 47.74891663 15.4616098 48.85720825 15.78996277 49.99908447 C16.08059097 51.02064636 16.37121918 52.04220825 16.6706543 53.09472656 C16.92807907 53.99596252 17.18550385 54.89719849 17.45072937 55.82574463 C18 58 18 58 18 60 C14.73120384 61.00674459 11.4596529 62.00422489 8.1875 63 C7.25873047 63.28617187 6.32996094 63.57234375 5.37304688 63.8671875 C4.0340332 64.27324219 4.0340332 64.27324219 2.66796875 64.6875 C1.84578857 64.93886719 1.0236084 65.19023438 0.17651367 65.44921875 C-2 66 -2 66 -5 66 C-5.18062988 65.31188232 -5.36125977 64.62376465 -5.54736328 63.91479492 C-9.15845143 50.20611884 -12.84291259 36.55000652 -17.31445312 23.09326172 C-17.80499831 21.59542182 -18.27541955 20.09093188 -18.73242188 18.58251953 C-18.98056641 17.78313965 -19.22871094 16.98375977 -19.484375 16.16015625 C-19.70319336 15.43578369 -19.92201172 14.71141113 -20.14746094 13.96508789 C-21.12060344 11.72201114 -22.11403398 10.54475884 -24 9 C-27.10007201 7.79950593 -27.10007201 7.79950593 -30 7 C-25.39824369 4.55335439 -20.54963781 3.25730816 -15.5625 1.8125 C-14.62083984 1.52697266 -13.67917969 1.24144531 -12.70898438 0.94726562 C-11.79568359 0.68236328 -10.88238281 0.41746094 -9.94140625 0.14453125 C-9.11326416 -0.09934326 -8.28512207 -0.34321777 -7.43188477 -0.59448242 C-4.49058262 -1.08494551 -2.78771747 -1.10930726 0 0 Z " fill="#A5CE3A" transform="translate(368,37)"/>
<path d="M0 0 C3.60401481 -0.08701039 7.20776012 -0.14039388 10.8125 -0.1875 C12.34874023 -0.22520508 12.34874023 -0.22520508 13.91601562 -0.26367188 C15.39038086 -0.27817383 15.39038086 -0.27817383 16.89453125 -0.29296875 C18.25348511 -0.31653442 18.25348511 -0.31653442 19.63989258 -0.34057617 C22.46303139 0.06681792 23.2793815 0.77667576 25 3 C26.32953792 5.65907584 26.11986031 7.66565368 26.11352539 10.64306641 C26.11344986 11.82413971 26.11337433 13.00521301 26.11329651 14.22207642 C26.10813522 15.50230682 26.10297394 16.78253723 26.09765625 18.1015625 C26.0962413 19.40829926 26.09482635 20.71503601 26.09336853 22.06137085 C26.08954894 25.53676258 26.07972342 29.01211257 26.06866455 32.48748779 C26.05843843 36.03331945 26.05386833 39.57915785 26.04882812 43.125 C26.03810066 50.08335222 26.02050836 57.04166981 26 64 C18.74 64 11.48 64 4 64 C3.98541748 62.16783936 3.97083496 60.33567871 3.95581055 58.44799805 C3.90418028 52.39689537 3.83890031 46.34606068 3.76428509 40.29519939 C3.71954286 36.62626526 3.68029566 32.95744315 3.65356445 29.28833008 C3.62756926 25.74789938 3.58719483 22.20789888 3.53681374 18.66773415 C3.51199022 16.65868965 3.50209019 14.64947883 3.49235535 12.64030457 C3.47256119 11.41926529 3.45276703 10.19822601 3.43237305 8.94018555 C3.42126999 7.86318893 3.41016693 6.78619232 3.39872742 5.67655945 C2.95560733 2.70200289 2.34803065 1.7992901 0 0 Z " fill="#FEA503" transform="translate(236,87)"/>
<path d="M0 0 C3.58317958 -0.08720919 7.16608567 -0.14046112 10.75 -0.1875 C11.76578125 -0.21263672 12.7815625 -0.23777344 13.828125 -0.26367188 C14.8078125 -0.27333984 15.7875 -0.28300781 16.796875 -0.29296875 C17.69760742 -0.3086792 18.59833984 -0.32438965 19.52636719 -0.34057617 C22.66833588 0.09201822 23.91242845 0.58412045 26 3 C26.37126406 5.73636077 26.49003336 8.06450246 26.42578125 10.796875 C26.42285568 11.57491486 26.41993011 12.35295471 26.41691589 13.15457153 C26.4019039 15.68699207 26.35781623 18.21795572 26.3125 20.75 C26.29555589 22.47931701 26.27993353 24.20864746 26.265625 25.93798828 C26.13695787 38.64196173 25.69513402 51.31380406 25 64 C18.07 64 11.14 64 4 64 C3.98541748 62.16783936 3.97083496 60.33567871 3.95581055 58.44799805 C3.90418028 52.39689537 3.83890031 46.34606068 3.76428509 40.29519939 C3.71954286 36.62626526 3.68029566 32.95744315 3.65356445 29.28833008 C3.62756926 25.74789938 3.58719483 22.20789888 3.53681374 18.66773415 C3.51199022 16.65868965 3.50209019 14.64947883 3.49235535 12.64030457 C3.47256119 11.41926529 3.45276703 10.19822601 3.43237305 8.94018555 C3.42126999 7.86318893 3.41016693 6.78619232 3.39872742 5.67655945 C2.95560733 2.70200289 2.34803065 1.7992901 0 0 Z " fill="#ED2262" transform="translate(138,47)"/>
<path d="M0 0 C32.67 0 65.34 0 99 0 C99 13.2 99 26.4 99 40 C91.74 40 84.48 40 77 40 C77 27.13 77 14.26 77 1 C51.92 1 26.84 1 1 1 C1 13.87 1 26.74 1 40 C0.67 40 0.34 40 0 40 C0 26.8 0 13.6 0 0 Z " fill="#FBDE66" transform="translate(163,151)"/>
<path d="M0 0 C3.11157734 9.6448205 6.15489994 19.2989091 8.875 29.0625 C9.08987061 29.82933105 9.30474121 30.59616211 9.52612305 31.38623047 C11 36.74478683 11 36.74478683 11 39 C7.73348625 40.03502777 4.46122637 41.05053935 1.1875 42.0625 C0.25873047 42.35705078 -0.67003906 42.65160156 -1.62695312 42.95507812 C-2.51962891 43.22900391 -3.41230469 43.50292969 -4.33203125 43.78515625 C-5.15421143 44.04176025 -5.9763916 44.29836426 -6.82348633 44.56274414 C-9 45 -9 45 -12 44 C-12.93554688 41.65844727 -12.93554688 41.65844727 -13.71875 38.56640625 C-14.01136719 37.44169922 -14.30398438 36.31699219 -14.60546875 35.15820312 C-14.90066406 33.97162109 -15.19585937 32.78503906 -15.5 31.5625 C-16.09243597 29.2509649 -16.68616867 26.93976174 -17.28125 24.62890625 C-17.71050781 22.95078857 -17.71050781 22.95078857 -18.1484375 21.23876953 C-20.06080918 13.43692872 -20.06080918 13.43692872 -23 6 C-19.73120384 4.99325541 -16.4596529 3.99577511 -13.1875 3 C-12.25873047 2.71382813 -11.32996094 2.42765625 -10.37304688 2.1328125 C-9.48037109 1.86210938 -8.58769531 1.59140625 -7.66796875 1.3125 C-6.84578857 1.06113281 -6.0236084 0.80976562 -5.17651367 0.55078125 C-3 0 -3 0 0 0 Z " fill="#FADF64" transform="translate(386,97)"/>
<path d="M0 0 C6.93 0 13.86 0 21 0 C21 13.2 21 26.4 21 40 C14.07 40 7.14 40 0 40 C0 26.8 0 13.6 0 0 Z " fill="#FBDF64" transform="translate(142,111)"/>
<path d="M0 0 C4.54144994 -0.11647041 9.08251394 -0.18734502 13.625 -0.25 C15.55279297 -0.30027344 15.55279297 -0.30027344 17.51953125 -0.3515625 C29.3030583 -0.47367159 29.3030583 -0.47367159 34 4 C37.55182811 7.90701092 37.61271062 12.18936106 37.49609375 17.265625 C36.7051922 21.62492488 34.35733934 24.23410904 31 27 C28.12981559 28.43509221 25.66456277 28.11158506 22.4609375 28.09765625 C21.15898437 28.09443359 19.85703125 28.09121094 18.515625 28.08789062 C17.13541601 28.07953466 15.75520768 28.07106971 14.375 28.0625 C12.98698074 28.05748501 11.59895978 28.0529221 10.2109375 28.04882812 C6.80724868 28.03700976 3.40364561 28.02053434 0 28 C0.78890625 27.37480469 1.5778125 26.74960937 2.390625 26.10546875 C6.39009403 22.87835227 8.07318826 20.71735756 8.875 15.625 C9.21161206 11.26336716 8.61591477 8.62852694 6 5 C2.93282876 2.70417137 2.93282876 2.70417137 0 1 C0 0.67 0 0.34 0 0 Z " fill="#B5612A" transform="translate(475,447)"/>
</svg>
